HIERARCHY
ROOT Hips
{
	OFFSET 0.00000 0.00000 0.00000
	CHANNELS 6 Xposition Yposition Zposition Zrotation Yrotation Xrotation 
	JOINT LHipJoint
	{
		OFFSET 0 0 0
		CHANNELS 3 Zrotation Yrotation Xrotation
		JOINT LeftHip
		{
			OFFSET 1.30186 -1.90722 0.65024
			CHANNELS 3 Zrotation Yrotation Xrotation
			JOINT LeftKnee
			{
				OFFSET 2.56413 -7.04489 0.00000
				CHANNELS 3 Zrotation Yrotation Xrotation
				JOINT LeftAnkle
				{
					OFFSET 2.79321 -7.67428 0.00000
					CHANNELS 3 Zrotation Yrotation Xrotation
					JOINT LeftToe
					{
						OFFSET 0.15723 -0.43198 2.08537
						CHANNELS 3 Zrotation Yrotation Xrotation
						End Site
						{
							OFFSET 0.00000 -0.00000 1.07411
						}
					}
				}
			}
		}
	}
	JOINT RHipJoint
	{
		OFFSET 0 0 0
		CHANNELS 3 Zrotation Yrotation Xrotation
		JOINT RightHip
		{
			OFFSET -1.28627 -1.90723 0.65024
			CHANNELS 3 Zrotation Yrotation Xrotation
			JOINT RightKnee
			{
				OFFSET -2.56567 -7.04913 0.00000
				CHANNELS 3 Zrotation Yrotation Xrotation
				JOINT RightAnkle
				{
					OFFSET -2.75597 -7.57198 0.00000
					CHANNELS 3 Zrotation Yrotation Xrotation
					JOINT RightToe
					{
						OFFSET -0.17500 -0.48081 2.22901
						CHANNELS 3 Zrotation Yrotation Xrotation
						End Site
						{
							OFFSET -0.00000 -0.00000 1.14762
						}
					}
				}
			}
		}
	}
	JOINT lowerback
	{
		OFFSET 0 0 0
		CHANNELS 3 Zrotation Yrotation Xrotation
		JOINT Chest
		{
			OFFSET -0.04522 2.07467 -0.16566
			CHANNELS 3 Zrotation Yrotation Xrotation
			JOINT Chest2
			{
				OFFSET -0.01178 2.08825 -0.05393
				CHANNELS 3 Zrotation Yrotation Xrotation
				JOINT lowerneck
				{
					OFFSET 0 0 0
					CHANNELS 3 Zrotation Yrotation Xrotation
					JOINT Neck
					{
						OFFSET -0.05182 1.80489 0.16014
						CHANNELS 3 Zrotation Yrotation Xrotation
						JOINT Head
						{
							OFFSET 0.14739 1.78840 -0.33342
							CHANNELS 3 Zrotation Yrotation Xrotation
							End Site
							{
								OFFSET 0.04364 1.83899 -0.13460
							}
						}
					}
				}
				JOINT LeftCollar
				{
					OFFSET 0 0 0
					CHANNELS 3 Zrotation Yrotation Xrotation
					JOINT LeftShoulder
					{
						OFFSET 3.01264 1.29090 -0.06579
CHANNELS 3 Zrotation Xrotation Yrotation
						JOINT LeftElbow
						{
OFFSET 0 -5.556800 0.000000
CHANNELS 3 Zrotation Xrotation Yrotation
							JOINT LeftWrist
							{
OFFSET 0 -3.639790 -0.000000
CHANNELS 3 Zrotation Xrotation Yrotation
								JOINT lhand
								{
									OFFSET 0 0 0
CHANNELS 3 Zrotation Xrotation Yrotation
									JOINT LFingers
									{
OFFSET 0 -0.569420 -0.000000
CHANNELS 3 Zrotation Xrotation Yrotation
										End Site
										{
OFFSET 0 -0.459080 -0.000000
										}
									}
								}
								JOINT LThumb
								{
OFFSET 0 0.000000 0.000000
CHANNELS 3 Zrotation Xrotation Yrotation
									End Site
									{
OFFSET 0 -0.466090 0.466090
									}
								}
							}
						}
					}
				}
				JOINT RightCollar
				{
					OFFSET 0 0 0
					CHANNELS 3 Zrotation Yrotation Xrotation
					JOINT RightShoulder
					{
						OFFSET -3.15796 1.37283 -0.36748
CHANNELS 3 Zrotation Xrotation Yrotation
						JOINT RightElbow
						{
OFFSET 0 -5.343390 0.000000
CHANNELS 3 Zrotation Xrotation Yrotation
							JOINT RightWrist
							{
OFFSET 0 -3.651010 -0.000000
CHANNELS 3 Zrotation Xrotation Yrotation
								JOINT rhand
								{
									OFFSET 0 0 0
CHANNELS 3 Zrotation Xrotation Yrotation
									JOINT RFingers
									{
OFFSET 0 -0.694250 -0.000000
CHANNELS 3 Zrotation Xrotation Yrotation
										End Site
										{
OFFSET 0 -0.559720 -0.000000
										}
									}
								}
								JOINT RThumb
								{
OFFSET 0 0.000000 0.000000
CHANNELS 3 Zrotation Xrotation Yrotation
									End Site
									{
OFFSET 0 -0.568270 0.568270
									}
								}
							}
						}
					}
				}
			}
		}
	}
}
MOTION
Frames: 5
Frame Time: 0.008333333333333333
8.519986 18.892728 9.814843 178.360604 1.369222 -175.188775 0.000000 0.000000 0.000000 -18.637729 -8.865896 2.745012 0.142623 2.434114 6.707102 0.218251 7.588895 -14.647971 0.238253 -3.141561 -8.673042 0.000000 0.000000 0.000000 13.610091 12.938898 4.579590 -0.172820 -2.678303 7.384391 0.820580 -16.477879 -11.210862 -0.044701 -1.362250 3.746096 -3.789523 0.550008 -2.129215 -1.114474 0.877104 -0.022453 1.007223 0.436075 1.132619 -9.033726 -8.341109 -10.443836 18.350494 -13.223315 9.077871 6.026574 -6.031451 6.363741 0.000000 0.000000 0.000000 7.220734 -18.641356 -50.651405 141.304730 -47.277664 102.525353 35.614664 -13.463629 -17.562463 0.000000 0.000000 0.000000 -7.125000 0.000000 0.000000 7.787054 51.088738 -1.174237 0.000000 0.000000 0.000000 -2.218374 -13.496860 46.581032 -135.199283 -50.670512 -97.915461 -11.386190 -37.436077 -68.509070 0.000000 0.000000 0.000000 7.125000 0.000000 0.000000 18.898664 -36.466530 27.152972
8.522786 18.885798 9.812403 178.314477 1.567198 -175.176154 0.000000 0.000000 0.000000 -18.682128 -8.634650 2.521001 0.149294 2.489621 6.861046 0.222261 7.568732 -14.684608 0.257997 -3.263328 -9.013239 0.000000 0.000000 0.000000 13.564645 13.110266 4.607311 -0.170490 -2.659827 7.333011 0.820973 -16.477527 -11.196067 -0.029337 -1.104866 3.037434 -3.918450 0.652817 -2.362944 -1.068283 1.031543 0.109875 1.135714 0.505742 1.389651 -8.838325 -8.244745 -10.726060 18.033973 -13.025479 9.144140 5.906954 -5.917083 6.367644 0.000000 0.000000 0.000000 6.198950 -18.348689 -53.219573 141.052604 -47.433709 102.339986 35.563865 -13.209740 -17.076089 0.000000 0.000000 0.000000 -7.125000 0.000000 0.000000 7.748317 50.507470 -1.057145 0.000000 0.000000 0.000000 -1.542068 -13.596560 48.292134 -135.270615 -50.633728 -97.970184 -2.755961 -29.720444 -65.826023 0.000000 0.000000 0.000000 7.125000 0.000000 0.000000 20.562958 -32.985152 29.475457
8.525541 18.883623 9.807928 178.360773 1.790874 -175.196028 0.000000 0.000000 0.000000 -18.648173 -8.215985 2.704463 0.128424 2.309412 6.361604 0.168346 7.833079 -14.165571 0.407326 -4.096932 -11.349631 0.000000 0.000000 0.000000 13.642969 13.440530 4.308501 -0.207266 -2.930569 8.085647 0.798512 -16.409721 -11.644410 -0.026901 -1.052461 2.893161 -3.938607 0.804375 -2.437057 -1.060026 1.237754 0.121478 1.163661 0.607421 1.432534 -8.411546 -8.215230 -10.436422 17.703192 -12.974697 8.983706 5.746028 -5.913875 6.205771 0.000000 0.000000 0.000000 4.993379 -17.864735 -56.991589 140.601823 -47.708629 102.007061 36.062560 -12.604090 -16.762654 0.000000 0.000000 0.000000 -7.125000 0.000000 0.000000 8.271477 50.234011 -1.073378 0.000000 0.000000 0.000000 -0.554875 -13.565402 50.792420 -135.164833 -50.681841 -97.887258 4.084765 -23.432543 -61.729233 0.000000 0.000000 0.000000 7.125000 0.000000 0.000000 21.817734 -28.550209 31.020131
8.536841 18.879139 9.800474 178.011701 2.660175 -175.027117 0.000000 0.000000 0.000000 -19.061615 -7.256700 2.573616 0.109730 2.135607 5.880567 0.165799 7.717096 -13.994668 0.303311 -3.539537 -9.784813 0.000000 0.000000 0.000000 13.150618 14.419691 3.927516 -0.237030 -3.133096 8.649446 0.804423 -16.439900 -11.573388 -0.010106 -0.648541 1.782274 -4.477907 1.140143 -2.702351 -1.217978 1.728332 0.100048 1.325600 0.851441 1.525129 -7.856412 -8.210201 -10.163254 17.449726 -12.966060 8.629186 5.584274 -5.934051 5.991882 0.000000 0.000000 0.000000 4.086830 -17.658598 -61.595779 139.403576 -48.418333 101.115510 36.960266 -12.574110 -15.792106 0.000000 0.000000 0.000000 -7.125000 0.000000 0.000000 9.193336 49.249443 -0.969302 0.000000 0.000000 0.000000 0.247562 -13.602813 54.394137 -133.335198 -51.557509 -96.464106 4.783801 -21.426175 -62.773948 0.000000 0.000000 0.000000 7.125000 0.000000 0.000000 22.176465 -29.480376 31.701139
8.514049 18.878903 9.784234 177.851220 1.716034 -175.250359 0.000000 0.000000 0.000000 -19.290354 -7.923689 3.248340 0.096339 2.001324 5.509429 0.145188 7.798966 -13.762500 0.319026 -3.628538 -10.034019 0.000000 0.000000 0.000000 13.025385 13.404045 3.960817 -0.251906 -3.229172 8.917505 0.748214 -16.150029 -12.162632 -0.021718 -0.941260 2.587284 -4.359253 0.716616 -2.560781 -1.151192 1.149827 0.159459 1.304458 0.561027 1.539751 -8.007994 -8.078539 -9.869836 17.324365 -12.732580 8.620311 5.609218 -5.840166 5.905928 0.000000 0.000000 0.000000 2.914778 -16.976383 -66.293876 137.656360 -49.396293 99.798219 36.702729 -12.390381 -14.967423 0.000000 0.000000 0.000000 -7.125000 0.000000 0.000000 8.920660 48.216373 -0.713968 0.000000 0.000000 0.000000 0.668105 -13.806726 58.962399 -131.550267 -52.349449 -95.058303 5.911783 -20.025153 -60.112778 0.000000 0.000000 0.000000 7.125000 0.000000 0.000000 22.158758 -26.902340 31.365999
